<?xml version="1.0" encoding="utf-8"?>
<!-- Generator: Adobe Illustrator 21.0.0, SVG Export Plug-In . SVG Version: 6.00 Build 0)  -->
<svg version="1.1" xmlns="http://www.w3.org/2000/svg" xmlns:xlink="http://www.w3.org/1999/xlink" x="0px" y="0px"
	 viewBox="0 0 62 62" style="enable-background:new 0 0 62 62;" xml:space="preserve">
<style type="text/css">
	.st0{enable-background:new    ;}
	.st1{fill-rule:evenodd;clip-rule:evenodd;fill:#0691CE;}
	.st2{fill:#FFFFFF;}
	.st3{fill-rule:evenodd;clip-rule:evenodd;fill:#FFFFFF;}
</style>
<g id="Ellipse_2_1_" class="st0">
	<g id="Ellipse_2">
		<g>
			<path class="st1" d="M31,58.5C15.8,58.5,3.5,46.2,3.5,31C3.5,15.8,15.8,3.5,31,3.5c15.2,0,27.5,12.3,27.5,27.5
				C58.5,46.2,46.2,58.5,31,58.5z"/>
		</g>
		<g>
			<path class="st2" d="M31,5c14.3,0,26,11.7,26,26S45.3,57,31,57S5,45.3,5,31S16.7,5,31,5 M31,2C15,2,2,15,2,31c0,16,13,29,29,29
				c16,0,29-13,29-29C60,15,47,2,31,2L31,2z"/>
		</g>
	</g>
</g>
<g id="Photo_1_" class="st0">
	<g id="Photo">
		<g>
			<path class="st3" d="M41.4,23.7h-3.7l-1.9-3.2h-9.6l-1.9,3.2h-3.7c-0.8,0-2.4,0.8-2.4,2.4v12.8c0,1.3,1.2,2.4,2.2,2.4h21
				c1,0,2.3-1.1,2.3-2.4V26.1C43.8,25.3,43,23.7,41.4,23.7z M42.2,38.9c0,0.3-0.5,0.8-0.7,0.8h-21c-0.2,0-0.6-0.4-0.6-0.8V26.1
				c0-0.5,0.7-0.8,0.8-0.8h4.6l0.5-0.8l1.5-2.4H35l1.4,2.4l0.4,0.8h4.6c0.6,0,0.8,0.7,0.8,0.8V38.9z M31,26.1
				c-3.1,0-5.6,2.5-5.6,5.6c0,3.1,2.5,5.6,5.6,5.6c3.1,0,5.6-2.5,5.6-5.6C36.6,28.6,34.1,26.1,31,26.1z M31,35.7c-2.2,0-4-1.8-4-4
				c0-2.2,1.8-4,4-4c2.2,0,4,1.8,4,4C35,33.9,33.2,35.7,31,35.7z"/>
		</g>
	</g>
</g>
</svg>
