<?xml version="1.0" encoding="utf-8"?>
<!-- Generator: Adobe Illustrator 21.0.0, SVG Export Plug-In . SVG Version: 6.00 Build 0)  -->
<svg version="1.1" id="Layer_1" xmlns="http://www.w3.org/2000/svg" xmlns:xlink="http://www.w3.org/1999/xlink" x="0px" y="0px"
	 viewBox="0 0 37 37" style="enable-background:new 0 0 37 37;" xml:space="preserve">
<style type="text/css">
	.st0{fill:#FFFFFF;}
	.st1{fill-rule:evenodd;clip-rule:evenodd;fill:#FFFFFF;}
</style>
<path class="st0" d="M36.7,19L19.8,1.3C19.6,1.1,19.3,1,19,1c-0.3,0-0.6,0.1-0.8,0.3L1.3,19c-0.4,0.4-0.4,1.2,0,1.6
	c0.4,0.4,1.2,0.4,1.6,0c0,0,0.6-0.6,1.5-1.6v16.9c0,0.6,0.5,1.1,1.1,1.1h7.8c0.6,0,1.1-0.5,1.1-1.1l0-11.3h8.9v11.2
	c0,0.6,0.5,1.1,1.1,1.1h7.8c0.6,0,1.1-0.5,1.1-1.1V19c0.9,1,1.5,1.6,1.5,1.6c0.2,0.2,0.5,0.3,0.8,0.3c0.3,0,0.6-0.1,0.8-0.3
	C37.1,20.2,37.1,19.5,36.7,19z"/>
<path class="st1" d="M5.8,16"/>
</svg>
