<svg width="30" height="30" viewBox="0 0 30 30" fill="none" xmlns="http://www.w3.org/2000/svg">
<circle cx="15" cy="15" r="15" fill="#673AB7"/>
<path fill-rule="evenodd" clip-rule="evenodd" d="M14 15C14.2884 15 14.5627 15.1245 14.7526 15.3415L21.7526 23.3415C22.1163 23.7571 22.0742 24.3889 21.6585 24.7526C21.2429 25.1163 20.6111 25.0741 20.2474 24.6585L15 18.6614V24C15 24.5523 14.5523 25 14 25C13.4477 25 13 24.5523 13 24V18.6614L7.75259 24.6585C7.38891 25.0741 6.75715 25.1163 6.34151 24.7526C5.92587 24.3889 5.88375 23.7571 6.24744 23.3415L13.2474 15.3415C13.4373 15.1245 13.7117 15 14 15Z" fill="white"/>
<path fill-rule="evenodd" clip-rule="evenodd" d="M9.00001 6C9.00001 5.44772 9.44773 5 10 5H18C18.5523 5 19 5.44772 19 6V16C19 16.5523 18.5523 17 18 17H10C9.44773 17 9.00001 16.5523 9.00001 16V6ZM11 7V15H17V7H11Z" fill="white"/>
<path fill-rule="evenodd" clip-rule="evenodd" d="M17 10C17 9.44772 17.4477 9 18 9H22C22.5523 9 23 9.44772 23 10V14C23 14.5523 22.5523 15 22 15H18C17.4477 15 17 14.5523 17 14V10ZM19 11V13H21V11H19Z" fill="white"/>
</svg>
