<svg width="30" height="30" viewBox="0 0 30 30" fill="none" xmlns="http://www.w3.org/2000/svg">
<circle cx="15" cy="15" r="15" fill="#FF9800"/>
<path fill-rule="evenodd" clip-rule="evenodd" d="M7.29289 6.29289C7.48043 6.10536 7.73478 6 8 6H22C22.2652 6 22.5196 6.10536 22.7071 6.29289L24.7071 8.29289C25.0976 8.68342 25.0976 9.31658 24.7071 9.70711L23.4142 11L24.7071 12.2929C25.0976 12.6834 25.0976 13.3166 24.7071 13.7071L23 15.4142V22C23 22.5523 22.5523 23 22 23C21.4477 23 21 22.5523 21 22V16H16V22C16 22.5523 15.5523 23 15 23C14.4477 23 14 22.5523 14 22V16H9V22C9 22.5523 8.55228 23 8 23C7.44772 23 7 22.5523 7 22V15.4142L5.29289 13.7071C4.90237 13.3166 4.90237 12.6834 5.29289 12.2929L6.58579 11L5.29289 9.70711C4.90237 9.31658 4.90237 8.68342 5.29289 8.29289L7.29289 6.29289ZM8.41421 12L7.41421 13L8.41421 14H21.5858L22.5858 13L21.5858 12H8.41421ZM21.5858 10L22.5858 9L21.5858 8H8.41421L7.41421 9L8.41421 10H21.5858Z" fill="white"/>
</svg>
