<svg width="30" height="30" viewBox="0 0 30 30" fill="none" xmlns="http://www.w3.org/2000/svg">
<circle cx="15" cy="15" r="15" fill="#3F51B5"/>
<path d="M24 23H23V19H24C24.2652 19 24.5196 18.8946 24.7071 18.7071C24.8946 18.5196 25 18.2652 25 18C25 17.7348 24.8946 17.4804 24.7071 17.2929C24.5196 17.1054 24.2652 17 24 17H23V6C23 5.73479 22.8946 5.48043 22.7071 5.2929C22.5196 5.10536 22.2652 5 22 5C21.7512 4.99876 21.5109 5.09028 21.326 5.2567C21.1411 5.42312 21.0249 5.65248 21 5.9V6C21 6.61 20.79 12 15 12C9.21 12 9 6.62 9 6C9.01042 5.91031 9.01042 5.8197 9 5.73C9 5.73 9 5.65 9 5.61C8.95611 5.5241 8.90242 5.44356 8.84 5.37C8.83809 5.34337 8.83809 5.31664 8.84 5.29C8.75211 5.2142 8.6546 5.15031 8.55 5.1C8.39461 4.99709 8.21356 4.93964 8.02726 4.93415C7.84097 4.92866 7.65684 4.97534 7.49567 5.06893C7.33449 5.16251 7.20267 5.29928 7.11509 5.4638C7.02751 5.62832 6.98765 5.81404 7 6V17H6C5.73478 17 5.48043 17.1054 5.29289 17.2929C5.10536 17.4804 5 17.7348 5 18C5 18.2652 5.10536 18.5196 5.29289 18.7071C5.48043 18.8946 5.73478 19 6 19H7V23H6C5.73478 23 5.48043 23.1054 5.29289 23.2929C5.10536 23.4804 5 23.7348 5 24C5 24.2652 5.10536 24.5196 5.29289 24.7071C5.48043 24.8946 5.73478 25 6 25H10C10.2652 25 10.5196 24.8946 10.7071 24.7071C10.8946 24.5196 11 24.2652 11 24C11 23.7348 10.8946 23.4804 10.7071 23.2929C10.5196 23.1054 10.2652 23 10 23H9V19H21V23H20C19.7348 23 19.4804 23.1054 19.2929 23.2929C19.1054 23.4804 19 23.7348 19 24C19 24.2652 19.1054 24.5196 19.2929 24.7071C19.4804 24.8946 19.7348 25 20 25H24C24.2652 25 24.5196 24.8946 24.7071 24.7071C24.8946 24.5196 25 24.2652 25 24C25 23.7348 24.8946 23.4804 24.7071 23.2929C24.5196 23.1054 24.2652 23 24 23ZM9 17V11.5C9.56004 12.1518 10.2387 12.6913 11 13.09V17H9ZM13 17V13.8C14.32 14.0667 15.68 14.0667 17 13.8V17H13ZM19 17V13.09C19.7613 12.6913 20.44 12.1518 21 11.5V17H19Z" fill="white"/>
</svg>
