<svg width="30" height="30" viewBox="0 0 30 30" fill="none" xmlns="http://www.w3.org/2000/svg">
<circle cx="15" cy="15" r="15" fill="#FFC107"/>
<path fill-rule="evenodd" clip-rule="evenodd" d="M15 4C15.5523 4 16 4.44772 16 5V6.58333C16 7.13562 15.5523 7.58333 15 7.58333C14.4477 7.58333 14 7.13562 14 6.58333V5C14 4.44772 14.4477 4 15 4ZM15 8.75C15.5523 8.75 16 9.19772 16 9.75V12.9167C16 13.469 15.5523 13.9167 15 13.9167C14.4477 13.9167 14 13.469 14 12.9167V9.75C14 9.19772 14.4477 8.75 15 8.75ZM15 15.0833C15.5523 15.0833 16 15.531 16 16.0833L16 19.25C16 19.8023 15.5523 20.25 15 20.25C14.4477 20.25 14 19.8023 14 19.25L14 16.0833C14 15.531 14.4477 15.0833 15 15.0833ZM15 21.4167C15.5523 21.4167 16 21.8644 16 22.4167V24C16 24.5523 15.5523 25 15 25C14.4477 25 14 24.5523 14 24V22.4167C14 21.8644 14.4477 21.4167 15 21.4167Z" fill="white"/>
<path fill-rule="evenodd" clip-rule="evenodd" d="M6 23C5.44772 23 5 22.5523 5 22L5 7C5 6.44772 5.44772 6 6 6C6.55229 6 7 6.44772 7 7L7 22C7 22.5523 6.55228 23 6 23Z" fill="white"/>
<path fill-rule="evenodd" clip-rule="evenodd" d="M24 23C23.4477 23 23 22.5523 23 22V7C23 6.44772 23.4477 6 24 6C24.5523 6 25 6.44772 25 7V22C25 22.5523 24.5523 23 24 23Z" fill="white"/>
<path fill-rule="evenodd" clip-rule="evenodd" d="M10.4472 12.1056C10.9412 12.3526 11.1414 12.9532 10.8944 13.4472L10.118 15L10.8944 16.5528C11.1414 17.0468 10.9412 17.6474 10.4472 17.8944C9.95324 18.1414 9.35256 17.9412 9.10557 17.4472L8.10557 15.4472C7.96481 15.1657 7.96481 14.8343 8.10557 14.5528L9.10557 12.5528C9.35256 12.0588 9.95324 11.8586 10.4472 12.1056Z" fill="white"/>
<path fill-rule="evenodd" clip-rule="evenodd" d="M19.5528 17.8944C19.0588 17.6474 18.8586 17.0468 19.1056 16.5528L19.882 15L19.1056 13.4472C18.8586 12.9532 19.0588 12.3526 19.5528 12.1056C20.0468 11.8586 20.6474 12.0588 20.8944 12.5528L21.8944 14.5528C22.0352 14.8343 22.0352 15.1657 21.8944 15.4472L20.8944 17.4472C20.6474 17.9412 20.0468 18.1414 19.5528 17.8944Z" fill="white"/>
</svg>
