<svg width="30" height="30" viewBox="0 0 30 30" fill="none" xmlns="http://www.w3.org/2000/svg">
<circle cx="15" cy="15" r="15" fill="#FF5722"/>
<path fill-rule="evenodd" clip-rule="evenodd" d="M15 8C15.5523 8 16 8.44772 16 9V11C16 11.5523 15.5523 12 15 12C14.4477 12 14 11.5523 14 11V9C14 8.44772 14.4477 8 15 8ZM3 10C3 9.44772 3.44772 9 4 9H7.5C7.84479 9 8.16526 9.17762 8.348 9.47L10.6574 13.165L13.3162 14.0513C13.7246 14.1874 14 14.5696 14 15V19C14 19.5523 13.5523 20 13 20H10C9.94348 20 9.88806 19.9953 9.8341 19.9863C9.42615 21.1586 8.31133 22 7 22C5.34315 22 4 20.6569 4 19C4 17.3431 5.34315 16 7 16C8.31133 16 9.42616 16.8414 9.8341 18.0137C9.88806 18.0047 9.94348 18 10 18H12V15.7208L9.68377 14.9487C9.46324 14.8752 9.27521 14.7271 9.152 14.53L6.94575 11H4C3.44772 11 3 10.5523 3 10ZM21.652 9.47C21.8347 9.17762 22.1552 9 22.5 9H26C26.5523 9 27 9.44772 27 10C27 10.5523 26.5523 11 26 11H23.0542L20.848 14.53C20.7248 14.7271 20.5368 14.8752 20.3162 14.9487L18 15.7208V18H20C20.0565 18 20.1119 18.0047 20.1659 18.0137C20.5738 16.8414 21.6887 16 23 16C24.6569 16 26 17.3431 26 19C26 20.6569 24.6569 22 23 22C21.6887 22 20.5738 21.1586 20.1659 19.9863C20.1119 19.9953 20.0565 20 20 20H17C16.4477 20 16 19.5523 16 19V15C16 14.5696 16.2754 14.1874 16.6838 14.0513L19.3426 13.165L21.652 9.47ZM19.5355 9.70711C19.926 10.0976 19.926 10.7308 19.5355 11.1213L18.1213 12.5355C17.7307 12.9261 17.0976 12.9261 16.707 12.5355C16.3165 12.145 16.3165 11.5118 16.707 11.1213L18.1213 9.70711C18.5118 9.31658 19.145 9.31658 19.5355 9.70711ZM10.2928 9.70711C10.6834 9.31659 11.3165 9.31659 11.707 9.70711L13.1213 11.1213C13.5118 11.5118 13.5118 12.145 13.1213 12.5355C12.7307 12.9261 12.0976 12.9261 11.707 12.5355L10.2928 11.1213C9.90231 10.7308 9.90231 10.0976 10.2928 9.70711ZM3 14C3 13.4477 3.44772 13 4 13H6C6.55228 13 7 13.4477 7 14C7 14.5523 6.55228 15 6 15H4C3.44772 15 3 14.5523 3 14ZM23 14C23 13.4477 23.4477 13 24 13H26C26.5523 13 27 13.4477 27 14C27 14.5523 26.5523 15 26 15H24C23.4477 15 23 14.5523 23 14ZM7 18C6.44772 18 6 18.4477 6 19C6 19.5523 6.44772 20 7 20C7.55228 20 8 19.5523 8 19C8 18.4477 7.55228 18 7 18ZM23 18C22.4477 18 22 18.4477 22 19C22 19.5523 22.4477 20 23 20C23.5523 20 24 19.5523 24 19C24 18.4477 23.5523 18 23 18Z" fill="white"/>
</svg>
