<?xml version="1.0" encoding="utf-8"?>
<!-- Generator: Adobe Illustrator 23.0.0, SVG Export Plug-In . SVG Version: 6.00 Build 0)  -->
<svg version="1.1" id="Layer_1" xmlns="http://www.w3.org/2000/svg" xmlns:xlink="http://www.w3.org/1999/xlink" x="0px" y="0px"
	 viewBox="0 0 700 700" style="enable-background:new 0 0 700 700;" xml:space="preserve">
<style type="text/css">
	.st0{fill:#0081AC;}
</style>
<symbol  id="a" viewBox="-8.2 -8 16.4 16.1">
	<path d="M8.2-0.1v1.4H-3.2c0.1,1.1,0.5,2,1.2,2.6c0.7,0.6,1.7,0.9,3,0.9c1,0,2.1-0.1,3.2-0.5C5.2,4,6.3,3.6,7.5,2.9v3.8
		C6.3,7.1,5.2,7.5,4,7.7C2.9,7.9,1.7,8,0.5,8c-2.8,0-4.9-0.7-6.5-2.1C-7.5,4.5-8.2,2.6-8.2,0c0-2.5,0.8-4.5,2.3-5.9
		C-4.4-7.3-2.4-8,0.3-8C2.7-8,4.6-7.3,6-5.9C7.5-4.4,8.2-2.5,8.2-0.1L8.2-0.1z M3.2-1.7c0-0.9-0.3-1.7-0.8-2.2
		C1.8-4.5,1.1-4.8,0.3-4.8c-0.9,0-1.7,0.3-2.3,0.8s-1,1.3-1.1,2.3H3.2z"/>
</symbol>
<symbol  id="b" viewBox="-6.2 -9.8 12.4 19.7">
	<path d="M1.1-9.8v4.3h5V-2h-5v6.5c0,0.7,0.1,1.2,0.4,1.4s0.8,0.4,1.7,0.4h2.5v3.5H1.6c-1.9,0-3.3-0.4-4.1-1.2
		c-0.8-0.8-1.2-2.2-1.2-4.1V-2h-2.4v-3.5h2.4v-4.3H1.1z"/>
</symbol>
<symbol  id="c" viewBox="-7.7 -8 15.5 16.1">
	<path d="M0.3,0.8c-1,0-1.8,0.2-2.3,0.5c-0.5,0.3-0.8,0.9-0.8,1.5c0,0.6,0.2,1.1,0.6,1.5c0.4,0.3,1,0.5,1.7,0.5c0.9,0,1.7-0.3,2.3-1
		c0.6-0.7,1-1.5,1-2.5V0.8L0.3,0.8z M7.7-1.1v8.7H2.8V5.4C2.2,6.3,1.4,7,0.6,7.4C-0.2,7.8-1.2,8-2.4,8C-4,8-5.3,7.6-6.3,6.7
		c-1-0.9-1.5-2.1-1.5-3.6c0-1.8,0.6-3.1,1.8-3.9c1.2-0.8,3.2-1.3,5.8-1.3h2.9v-0.4c0-0.8-0.3-1.3-0.9-1.7C1.3-4.6,0.3-4.8-1-4.8
		c-1.1,0-2,0.1-2.9,0.3c-0.9,0.2-1.7,0.5-2.5,0.9v-3.7c1-0.3,2.1-0.4,3.1-0.6C-2.2-8-1.1-8-0.1-8c2.8,0,4.8,0.5,6,1.6
		C7.1-5.3,7.7-3.5,7.7-1.1L7.7-1.1z"/>
</symbol>
<symbol  id="d" viewBox="-5.7 -7.8 11.4 15.7">
	<path d="M5.7-3.3C5.2-3.5,4.8-3.6,4.4-3.7C4-3.8,3.6-3.9,3.1-3.9c-1.3,0-2.2,0.4-2.9,1.2c-0.7,0.8-1,2-1,3.5v7.1h-4.9V-7.5h4.9V-5
		c0.6-1,1.3-1.7,2.2-2.2c0.8-0.5,1.8-0.7,2.9-0.7c0.2,0,0.3,0,0.5,0c0.2,0,0.5,0,0.8,0.1L5.7-3.3z"/>
</symbol>
<symbol  id="e" viewBox="-8.4 -8 16.8 16.1">
	<path d="M0-4.5c-1.1,0-1.9,0.4-2.5,1.2C-3-2.6-3.3-1.5-3.3,0S-3,2.6-2.5,3.4C-1.9,4.2-1.1,4.5,0,4.5c1.1,0,1.9-0.4,2.4-1.2
		C3,2.6,3.3,1.5,3.3,0S3-2.6,2.5-3.4C1.9-4.1,1.1-4.5,0-4.5z M0-8c2.6,0,4.7,0.7,6.2,2.1C7.7-4.5,8.4-2.5,8.4,0
		c0,2.5-0.7,4.5-2.2,5.9C4.7,7.3,2.7,8,0,8c-2.6,0-4.7-0.7-6.2-2.1C-7.7,4.5-8.4,2.5-8.4,0c0-2.5,0.7-4.5,2.2-5.9
		C-4.7-7.3-2.6-8,0-8z"/>
</symbol>
<symbol  id="f" viewBox="-7.7 -7.8 15.4 15.7">
	<path d="M7.7-1.5v9.3H2.8V0.7c0-1.3,0-2.2-0.1-2.7S2.5-2.9,2.4-3.1C2.2-3.5,1.9-3.7,1.6-3.9C1.3-4.1,0.9-4.1,0.5-4.1
		c-1,0-1.8,0.4-2.4,1.2c-0.6,0.8-0.9,1.9-0.9,3.3v7.5h-4.9V-7.5h4.9v2.2c0.7-0.9,1.5-1.5,2.3-2c0.8-0.4,1.8-0.6,2.8-0.6
		c1.8,0,3.1,0.5,4,1.6C7.2-5.1,7.7-3.5,7.7-1.5L7.7-1.5z"/>
</symbol>
<symbol  id="g" viewBox="-7.7 -10.6 15.4 21.3">
	<path d="M7.7,1.3v9.3H2.8V3.5c0-1.3,0-2.3-0.1-2.8S2.5-0.1,2.4-0.3C2.2-0.7,1.9-0.9,1.6-1.1C1.3-1.3,0.9-1.3,0.5-1.3
		c-1,0-1.8,0.4-2.4,1.2c-0.6,0.8-0.9,1.9-0.9,3.3v7.5h-4.9v-21.3h4.9v8.2c0.7-0.9,1.5-1.5,2.3-2C0.4-4.8,1.3-5,2.3-5
		c1.8,0,3.1,0.5,4,1.6C7.2-2.3,7.7-0.8,7.7,1.3L7.7,1.3z"/>
</symbol>
<symbol  id="h" viewBox="-8.4 -10.2 16.8 20.4">
	<path d="M-8.4-10.2h8.7c2.6,0,4.6,0.6,6,1.7c1.4,1.1,2.1,2.8,2.1,4.9c0,2.1-0.7,3.8-2.1,4.9c-1.4,1.2-3.4,1.7-6,1.7h-3.5v7.1h-5.3
		V-10.2z M-3.1-6.4v5.7h2.9c1,0,1.8-0.3,2.4-0.8C2.7-1.9,3-2.6,3-3.5c0-0.9-0.3-1.6-0.8-2.1C1.6-6.1,0.8-6.4-0.2-6.4L-3.1-6.4z"/>
</symbol>
<symbol  id="i" viewBox="-8.2 -10.9 16.4 21.7">
	<path d="M3.3,2.2c-0.7,0.9-1.4,1.5-2.2,2C0.3,4.6-0.7,4.8-1.8,4.8c-1.9,0-3.4-0.7-4.6-2.2C-7.6,1.1-8.2-0.8-8.2-3
		c0-2.3,0.6-4.2,1.8-5.6c1.2-1.5,2.8-2.2,4.6-2.2c1.1,0,2,0.2,2.8,0.6c0.8,0.4,1.6,1.1,2.2,2v-2.3h4.9V3.3c0,2.5-0.8,4.3-2.3,5.6
		c-1.6,1.3-3.8,2-6.8,2c-0.9,0-1.9-0.1-2.8-0.2c-0.9-0.1-1.8-0.4-2.7-0.7V6.1C-5.5,6.6-4.6,7-3.8,7.2C-3,7.5-2.2,7.6-1.4,7.6
		c1.6,0,2.8-0.4,3.5-1c0.8-0.7,1.1-1.8,1.1-3.3L3.3,2.2z M0.1-7.3c-1,0-1.8,0.4-2.4,1.1C-2.9-5.5-3.1-4.4-3.1-3
		c0,1.4,0.3,2.5,0.8,3.2C-1.8,0.9-1,1.2,0.1,1.2c1,0,1.8-0.4,2.4-1.1C3-0.6,3.3-1.7,3.3-3c0-1.4-0.3-2.4-0.8-3.2
		C1.9-6.9,1.1-7.3,0.1-7.3L0.1-7.3z"/>
</symbol>
<symbol  id="j" viewBox="-8.7 -10.7 17.4 21.4">
	<path d="M-8.7-10.7h4.9L0.3-0.3l3.5-10.4h4.9L2.3,6.1C1.6,7.8,0.9,9,0,9.6c-0.9,0.7-2,1-3.4,1h-2.8V7.5h1.5c0.8,0,1.4-0.1,1.8-0.4
		C-2.5,6.8-2.2,6.3-2,5.6l0.1-0.4L-8.7-10.7z"/>
</symbol>
<symbol  id="k" viewBox="-8.2 -10.8 16.4 21.7">
	<path d="M-0.1,7.3c1.1,0,1.9-0.4,2.4-1.1c0.6-0.8,0.8-1.9,0.8-3.3c0-1.5-0.3-2.6-0.8-3.3C1.8-1.3,1-1.7-0.1-1.7
		c-1.1,0-1.9,0.4-2.4,1.2C-3,0.2-3.3,1.4-3.3,2.8c0,1.4,0.3,2.6,0.8,3.3C-1.9,6.9-1.1,7.3-0.1,7.3L-0.1,7.3z M-3.3-2.6
		c0.7-0.9,1.4-1.5,2.2-2C-0.3-5,0.7-5.2,1.7-5.2c1.9,0,3.4,0.8,4.7,2.2c1.2,1.5,1.8,3.4,1.8,5.8c0,2.4-0.6,4.3-1.8,5.8
		c-1.2,1.5-2.8,2.3-4.7,2.3c-1.1,0-2-0.2-2.8-0.6c-0.8-0.4-1.6-1.1-2.2-2v2.2h-4.9v-21.3h4.9V-2.6z"/>
</symbol>
<symbol  id="l" viewBox="-8.2 -10.8 16.4 21.7">
	<path d="M3.3-2.6v-8.2h4.9v21.3H3.3V8.2c-0.7,0.9-1.4,1.6-2.2,2c-0.8,0.4-1.8,0.6-2.8,0.6c-1.9,0-3.4-0.8-4.6-2.3
		c-1.2-1.5-1.8-3.4-1.8-5.8c0-2.4,0.6-4.3,1.8-5.8c1.2-1.5,2.8-2.3,4.6-2.3c1.1,0,2,0.2,2.8,0.6C1.9-4.2,2.6-3.5,3.3-2.6L3.3-2.6z
		 M0.1,7.3c1,0,1.8-0.4,2.4-1.1C3,5.4,3.3,4.3,3.3,2.8c0-1.5-0.3-2.6-0.8-3.3C1.9-1.3,1.1-1.7,0.1-1.7c-1,0-1.8,0.4-2.4,1.2
		c-0.6,0.8-0.8,1.9-0.8,3.3c0,1.5,0.3,2.6,0.8,3.3C-1.8,6.9-1,7.3,0.1,7.3z"/>
</symbol>
<symbol  id="m" viewBox="-6.8 -8 13.5 16.1">
	<path d="M6.8-7.2v4c-0.7-0.5-1.3-0.8-2-1C4.1-4.4,3.4-4.5,2.7-4.5c-1.4,0-2.4,0.4-3.2,1.2C-1.3-2.5-1.7-1.4-1.7,0
		c0,1.4,0.4,2.5,1.1,3.3c0.8,0.8,1.8,1.2,3.2,1.2c0.8,0,1.5-0.1,2.2-0.3c0.7-0.2,1.3-0.6,1.9-1v4C6,7.5,5.2,7.7,4.4,7.8
		C3.6,8,2.9,8,2.1,8c-2.8,0-4.9-0.7-6.5-2.1C-6,4.5-6.8,2.5-6.8,0c0-2.5,0.8-4.5,2.3-5.9C-2.9-7.3-0.7-8,2.1-8C2.9-8,3.6-8,4.4-7.8
		C5.2-7.7,6-7.5,6.8-7.2L6.8-7.2z"/>
</symbol>
<symbol  id="n" viewBox="-4.1 -13.7 8.2 27.3">
	<path d="M-0.8-7.7h4.9v15c0,2.1-0.5,3.6-1.5,4.7c-1,1.1-2.4,1.6-4.3,1.6h-2.4v-3.2h0.9c0.9,0,1.6-0.2,1.9-0.6
		C-1,9.4-0.8,8.6-0.8,7.3L-0.8-7.7z M-0.8-13.7h4.9v4h-4.9L-0.8-13.7z"/>
</symbol>
<symbol  id="o" viewBox="-7.7 -7.9 15.4 15.7">
	<path d="M-7.7,1.5v-9.3h4.9v1.5c0,0.8,0,1.9,0,3.1c0,1.3,0,2.1,0,2.5c0,1.2,0,2.1,0.1,2.7c0.1,0.5,0.2,0.9,0.3,1.2
		c0.2,0.3,0.5,0.6,0.8,0.8c0.3,0.2,0.7,0.3,1.1,0.3c1,0,1.8-0.4,2.4-1.2c0.6-0.8,0.9-1.9,0.9-3.3v-7.6h4.9V7.5H2.8V5.2
		c-0.7,0.9-1.5,1.6-2.3,2c-0.8,0.4-1.7,0.6-2.7,0.6c-1.8,0-3.1-0.5-4-1.6C-7.2,5.1-7.7,3.6-7.7,1.5L-7.7,1.5z"/>
</symbol>
<symbol  id="p" viewBox="-9.1 -10.2 18.3 20.4">
	<path d="M-9.1-10.2h5.9l7.4,14v-14h5v20.4H3.3l-7.4-14v14h-5V-10.2z"/>
</symbol>
<symbol  id="q" viewBox="-12.3 -7.8 24.6 15.7">
	<path d="M1.9-4.9c0.6-0.9,1.3-1.7,2.2-2.2C5-7.6,5.9-7.8,6.9-7.8c1.8,0,3.1,0.5,4,1.6c0.9,1.1,1.4,2.7,1.4,4.7v9.3H7.4v-8v-0.4
		c0-0.1,0-0.3,0-0.6c0-1.1-0.2-1.9-0.5-2.3C6.6-3.9,6.1-4.1,5.4-4.1C4.5-4.1,3.8-3.8,3.2-3C2.7-2.2,2.5-1.1,2.5,0.3v7.5h-4.9v-8
		c0-1.7-0.1-2.8-0.4-3.3c-0.3-0.5-0.8-0.7-1.6-0.7c-0.9,0-1.7,0.4-2.2,1.2c-0.5,0.8-0.8,1.9-0.8,3.3v7.5h-4.9V-7.5h4.9v2.2
		c0.6-0.9,1.3-1.5,2.1-2c0.8-0.4,1.6-0.7,2.6-0.7c1.1,0,2,0.3,2.8,0.8C0.9-6.6,1.5-5.8,1.9-4.9L1.9-4.9z"/>
</symbol>
<symbol  id="r" viewBox="-5.9 -10.6 11.9 21.3">
	<path d="M5.9-10.6v3.2H3.2C2.6-7.4,2.1-7.3,1.8-7C1.5-6.8,1.4-6.4,1.4-5.7v1.1h4.2v3.5H1.4v11.8h-4.9V-1.2h-2.4v-3.5h2.4v-1.1
		c0-1.7,0.5-2.9,1.4-3.7c0.9-0.8,2.4-1.2,4.3-1.2L5.9-10.6z"/>
</symbol>
<symbol  id="s" viewBox="-6.9 -8 13.9 16.1">
	<path d="M5.9-7.2v3.7c-1-0.4-2.1-0.8-3-1C1.9-4.7,1-4.8,0.1-4.8c-0.9,0-1.6,0.1-2.1,0.3c-0.4,0.2-0.7,0.6-0.7,1.1
		c0,0.4,0.2,0.7,0.5,0.9c0.3,0.2,1,0.4,1.8,0.5l0.9,0.1C3.1-1.5,4.8-1,5.6-0.3c0.9,0.7,1.3,1.9,1.3,3.4c0,1.6-0.6,2.9-1.8,3.7
		C3.9,7.6,2.1,8-0.2,8c-1,0-2.1-0.1-3.2-0.2c-1.1-0.2-2.2-0.4-3.3-0.7V3.4c1,0.5,2,0.8,3,1.1c1,0.2,2.1,0.3,3.1,0.3
		c1,0,1.7-0.1,2.2-0.4C2,4.1,2.3,3.7,2.3,3.2c0-0.4-0.2-0.8-0.5-1c-0.3-0.2-1-0.4-2-0.5l-0.9-0.1c-2.2-0.3-3.7-0.8-4.6-1.5
		c-0.9-0.7-1.3-1.9-1.3-3.4c0-1.6,0.6-2.8,1.7-3.6C-4.2-7.6-2.5-8-0.2-8C0.7-8,1.7-8,2.7-7.8C3.7-7.7,4.7-7.5,5.9-7.2L5.9-7.2z"/>
</symbol>
<symbol  id="t" viewBox="-2.4 -10.6 4.9 21.3">
	<path d="M-2.4-4.7h4.9v15.3h-4.9L-2.4-4.7z M-2.4-10.6h4.9v4h-4.9L-2.4-10.6z"/>
</symbol>
<symbol  id="u" viewBox="-10.7 -10.2 21.4 20.4">
	<path d="M-10.7-10.2h5.3L0,4.9l5.4-15.1h5.3L3.1,10.2h-6.3L-10.7-10.2z"/>
</symbol>
<symbol  id="v" viewBox="-9.4 -10.2 18.8 20.4">
	<path d="M-9.4-10.2H9.4v4H2.6v16.4h-5.3V-6.2h-6.8L-9.4-10.2z"/>
</symbol>
<symbol  id="w" viewBox="-8.7 -10.6 17.4 21.2">
	<path d="M8.7,9.1c-1,0.5-2,0.9-3,1.1c-1,0.3-2.1,0.4-3.3,0.4c-3.4,0-6.1-0.9-8.1-2.8c-2-1.9-3-4.5-3-7.7c0-3.3,1-5.8,3-7.7
		c2-1.9,4.7-2.9,8.1-2.9c1.1,0,2.2,0.1,3.3,0.4c1.1,0.3,2.1,0.6,3,1.1v4.2C7.7-5.5,6.7-6,5.8-6.3c-0.9-0.3-1.9-0.5-3-0.5
		C0.9-6.8-0.6-6.2-1.6-5c-1.1,1.2-1.6,2.9-1.6,5c0,2.1,0.5,3.8,1.6,5c1.1,1.2,2.5,1.8,4.4,1.8c1.1,0,2.1-0.1,3-0.5
		C6.7,6,7.7,5.5,8.7,4.9V9.1z"/>
</symbol>
<g>
	<path class="st0" d="M350,28c-35,0-69.3,9.2-99.6,26.7c-30.3,17.5-55.4,42.6-72.9,72.9c-17.5,30.3-26.7,64.7-26.7,99.6
		c0,40.9,12.7,80.8,36.2,114.3c23.5,33.5,56.8,58.9,95.2,72.9L350,532l67.9-117.6v0c38.4-13.9,71.7-39.4,95.2-72.8
		c23.5-33.5,36.1-73.4,36.2-114.3c0-35-9.2-69.3-26.7-99.6c-17.5-30.3-42.6-55.5-72.9-72.9C419.3,37.2,385,28,350,28L350,28z
		 M350,79.5L350,79.5c39.2,0,76.8,15.6,104.5,43.3c27.7,27.7,43.3,65.3,43.3,104.5s-15.6,76.8-43.3,104.5
		c-27.7,27.7-65.3,43.3-104.5,43.3s-76.8-15.6-104.5-43.3s-43.3-65.3-43.3-104.5s15.6-76.8,43.3-104.5C273.2,95,310.8,79.5,350,79.5
		L350,79.5z"/>
	<path class="st0" d="M344.3,139.4c2.4,0,4.3,1.9,4.3,4.3s-1.9,4.3-4.3,4.3c-2.4,0-4.3-1.9-4.3-4.3
		C340.1,141.3,342,139.4,344.3,139.4z"/>
	<path class="st0" d="M356.9,139.4c2.4,0,4.3,1.9,4.3,4.3s-1.9,4.3-4.3,4.3s-4.3-1.9-4.3-4.3C352.6,141.3,354.5,139.4,356.9,139.4z"
		/>
	<path class="st0" d="M333.8,148.9c-11.6,0-20.9,8.4-20.9,18.9v66.5c0,9.7,8.1,17.7,18.5,18.8l37.5,0.1c10.9-0.7,19.5-8.8,19.5-18.8
		v-66.5c0-10.5-9.3-18.9-20.9-18.9L333.8,148.9L333.8,148.9z M343.2,152.9H358c3.1,0,5.6,2.1,5.6,4.8s-2.5,4.8-5.6,4.8h-14.8
		c-3.1,0-5.6-2.1-5.6-4.8S340.1,152.9,343.2,152.9z M333.5,166h34.2c7.6,0,13.7,5.5,13.7,12.4v13.4c0,6.8-6.1,12.3-13.7,12.3h-34.2
		c-7.6,0-13.7-5.5-13.7-12.3v-13.4C319.8,171.5,325.9,166,333.5,166z M328.5,229.6c4.2,0,7.5,3.1,7.5,7s-3.4,7-7.5,7s-7.5-3.2-7.5-7
		S324.4,229.6,328.5,229.6z M372.7,229.6c4.2,0,7.5,3.1,7.5,7s-3.4,7-7.5,7s-7.5-3.2-7.5-7S368.5,229.6,372.7,229.6z"/>
	<path class="st0" d="M323.8,248.3l-38.7,66.9h11l34.7-66.9H323.8L323.8,248.3z"/>
	<path class="st0" d="M370.1,248.3l35.3,66.9H416l-37.5-66.9H370.1z"/>
	
		<use xlink:href="#w"  width="17.4" height="21.2" x="-8.7" y="-10.6" transform="matrix(33.0625 0 0 33.0625 420 994)" style="overflow:visible;"/>
	
		<use xlink:href="#d"  width="11.4" height="15.7" x="-5.7" y="-7.8" transform="matrix(44.6229 0 0 44.6229 440.5508 994)" style="overflow:visible;"/>
	
		<use xlink:href="#a"  width="16.4" height="16.1" x="-8.2" y="-8" transform="matrix(42.5853 0 0 42.5853 454.3594 994)" style="overflow:visible;"/>
	
		<use xlink:href="#c"  width="15.5" height="16.1" x="-7.7" y="-8" transform="matrix(43.5374 0 0 43.5374 473.3477 994)" style="overflow:visible;"/>
	
		<use xlink:href="#b"  width="12.4" height="19.7" x="-6.2" y="-9.8" transform="matrix(35.612 0 0 35.612 492.2422 994)" style="overflow:visible;"/>
	
		<use xlink:href="#a"  width="16.4" height="16.1" x="-8.2" y="-8" transform="matrix(42.5853 0 0 42.5853 505.6289 994)" style="overflow:visible;"/>
	
		<use xlink:href="#l"  width="16.4" height="21.7" x="-8.2" y="-10.8" transform="matrix(32.3003 0 0 32.3003 524.6172 994)" style="overflow:visible;"/>
	
		<use xlink:href="#k"  width="16.4" height="21.7" x="-8.2" y="-10.8" transform="matrix(32.3003 0 0 32.3003 554.4102 994)" style="overflow:visible;"/>
	
		<use xlink:href="#j"  width="17.4" height="21.4" x="-8.7" y="-10.7" transform="matrix(32.772 0 0 32.772 574.4531 994)" style="overflow:visible;"/>
	
		<use xlink:href="#h"  width="16.8" height="20.4" x="-8.4" y="-10.2" transform="matrix(34.3031 0 0 34.3031 602.4531 994)" style="overflow:visible;"/>
	
		<use xlink:href="#v"  width="18.8" height="20.4" x="-9.4" y="-10.2" transform="matrix(34.3023 0 0 34.3023 632.7188 994)" style="overflow:visible;"/>
	
		<use xlink:href="#g"  width="15.4" height="21.3" x="-7.7" y="-10.6" transform="matrix(32.893 0 0 32.893 651.8203 994)" style="overflow:visible;"/>
	
		<use xlink:href="#c"  width="15.5" height="16.1" x="-7.7" y="-8" transform="matrix(43.5374 0 0 43.5374 671.7539 994)" style="overflow:visible;"/>
	
		<use xlink:href="#f"  width="15.4" height="15.7" x="-7.7" y="-7.8" transform="matrix(44.6226 0 0 44.6226 690.6484 994)" style="overflow:visible;"/>
	
		<use xlink:href="#i"  width="16.4" height="21.7" x="-8.2" y="-10.9" transform="matrix(32.2528 0 0 32.2528 710.582 994)" style="overflow:visible;"/>
	
		<use xlink:href="#c"  width="15.5" height="16.1" x="-7.7" y="-8" transform="matrix(43.5374 0 0 43.5374 730.625 994)" style="overflow:visible;"/>
	
		<use xlink:href="#u"  width="21.4" height="20.4" x="-10.7" y="-10.2" transform="matrix(32.7248 0 0 32.7248 759.2656 994)" style="overflow:visible;"/>
	
		<use xlink:href="#t"  width="4.9" height="21.3" x="-2.4" y="-10.6" transform="matrix(32.8935 0 0 32.8935 780.9375 994)" style="overflow:visible;"/>
	
		<use xlink:href="#i"  width="16.4" height="21.7" x="-8.2" y="-10.9" transform="matrix(32.2528 0 0 32.2528 790.5352 994)" style="overflow:visible;"/>
	
		<use xlink:href="#f"  width="15.4" height="15.7" x="-7.7" y="-7.8" transform="matrix(44.6226 0 0 44.6226 810.5781 994)" style="overflow:visible;"/>
	
		<use xlink:href="#a"  width="16.4" height="16.1" x="-8.2" y="-8" transform="matrix(42.5853 0 0 42.5853 830.5117 994)" style="overflow:visible;"/>
	
		<use xlink:href="#s"  width="13.9" height="16.1" x="-6.9" y="-8" transform="matrix(43.5371 0 0 43.5371 849.5 994)" style="overflow:visible;"/>
	
		<use xlink:href="#g"  width="15.4" height="21.3" x="-7.7" y="-10.6" transform="matrix(32.893 0 0 32.893 866.168 994)" style="overflow:visible;"/>
	
		<use xlink:href="#r"  width="11.9" height="21.3" x="-5.9" y="-10.6" transform="matrix(32.8935 0 0 32.8935 420 1022)" style="overflow:visible;"/>
	
		<use xlink:href="#d"  width="11.4" height="15.7" x="-5.7" y="-7.8" transform="matrix(44.6229 0 0 44.6229 432.1836 1022)" style="overflow:visible;"/>
	
		<use xlink:href="#e"  width="16.8" height="16.1" x="-8.4" y="-8" transform="matrix(41.5968 0 0 41.5968 445.9922 1022)" style="overflow:visible;"/>
	
		<use xlink:href="#q"  width="24.6" height="15.7" x="-12.3" y="-7.8" transform="matrix(28.4084 0 0 28.4084 465.2266 1022)" style="overflow:visible;"/>
	
		<use xlink:href="#b"  width="12.4" height="19.7" x="-6.2" y="-9.8" transform="matrix(35.612 0 0 35.612 504.1523 1022)" style="overflow:visible;"/>
	
		<use xlink:href="#g"  width="15.4" height="21.3" x="-7.7" y="-10.6" transform="matrix(32.893 0 0 32.893 517.5352 1022)" style="overflow:visible;"/>
	
		<use xlink:href="#a"  width="16.4" height="16.1" x="-8.2" y="-8" transform="matrix(42.5853 0 0 42.5853 537.4688 1022)" style="overflow:visible;"/>
	
		<use xlink:href="#p"  width="18.3" height="20.4" x="-9.1" y="-10.2" transform="matrix(34.3036 0 0 34.3036 566.207 1022)" style="overflow:visible;"/>
	
		<use xlink:href="#e"  width="16.8" height="16.1" x="-8.4" y="-8" transform="matrix(41.5968 0 0 41.5968 589.6406 1022)" style="overflow:visible;"/>
	
		<use xlink:href="#o"  width="15.4" height="15.7" x="-7.7" y="-7.9" transform="matrix(44.5786 0 0 44.5786 608.8789 1022)" style="overflow:visible;"/>
	
		<use xlink:href="#f"  width="15.4" height="15.7" x="-7.7" y="-7.8" transform="matrix(44.6226 0 0 44.6226 628.8125 1022)" style="overflow:visible;"/>
	
		<use xlink:href="#h"  width="16.8" height="20.4" x="-8.4" y="-10.2" transform="matrix(34.3031 0 0 34.3031 658.4922 1022)" style="overflow:visible;"/>
	
		<use xlink:href="#d"  width="11.4" height="15.7" x="-5.7" y="-7.8" transform="matrix(44.6229 0 0 44.6229 679.0156 1022)" style="overflow:visible;"/>
	
		<use xlink:href="#e"  width="16.8" height="16.1" x="-8.4" y="-8" transform="matrix(41.5968 0 0 41.5968 692.8203 1022)" style="overflow:visible;"/>
	
		<use xlink:href="#n"  width="8.2" height="27.3" x="-4.1" y="-13.7" transform="matrix(25.6148 0 0 25.6148 712.0586 1022)" style="overflow:visible;"/>
	
		<use xlink:href="#a"  width="16.4" height="16.1" x="-8.2" y="-8" transform="matrix(42.5853 0 0 42.5853 721.6563 1022)" style="overflow:visible;"/>
	
		<use xlink:href="#m"  width="13.5" height="16.1" x="-6.8" y="-8" transform="matrix(43.5375 0 0 43.5375 740.6484 1022)" style="overflow:visible;"/>
	
		<use xlink:href="#b"  width="12.4" height="19.7" x="-6.2" y="-9.8" transform="matrix(35.612 0 0 35.612 757.2422 1022)" style="overflow:visible;"/>
</g>
</svg>
