<svg width="30" height="30" viewBox="0 0 30 30" fill="none" xmlns="http://www.w3.org/2000/svg">
<circle cx="15" cy="15" r="15" fill="#E91E63"/>
<path fill-rule="evenodd" clip-rule="evenodd" d="M11 7C11 6.44772 11.4477 6 12 6H20C20.5523 6 21 6.44772 21 7C21 7.55228 20.5523 8 20 8H12C11.4477 8 11 7.55228 11 7ZM11 9H20C20.5523 9 21 9.44772 21 10C21 10.5523 20.5523 11 20 11H13L13 23H14C14.5523 23 15 23.4477 15 24C15 24.5523 14.5523 25 14 25H10C9.44772 25 9 24.5523 9 24C9 23.4477 9.44772 23 10 23H11L11 9Z" fill="white"/>
</svg>
