<?xml version="1.0" encoding="UTF-8" standalone="no"?>
<svg
   width="28.864252"
   height="36.505856"
   viewBox="0 0 28.864252 36.505856"
   fill="none"
   version="1.1"
   id="svg6"
   sodipodi:docname="iconEstacao.svg"
   inkscape:version="1.1 (c68e22c387, 2021-05-23)"
   xmlns:inkscape="http://www.inkscape.org/namespaces/inkscape"
   xmlns:sodipodi="http://sodipodi.sourceforge.net/DTD/sodipodi-0.dtd"
   xmlns="http://www.w3.org/2000/svg"
   xmlns:svg="http://www.w3.org/2000/svg">
  <defs
     id="defs10" />
  <sodipodi:namedview
     id="namedview8"
     pagecolor="#ffffff"
     bordercolor="#666666"
     borderopacity="1.0"
     inkscape:pageshadow="2"
     inkscape:pageopacity="0.0"
     inkscape:pagecheckerboard="0"
     showgrid="false"
     inkscape:zoom="9.3333333"
     inkscape:cx="0.58928572"
     inkscape:cy="18.482143"
     inkscape:window-width="1366"
     inkscape:window-height="745"
     inkscape:window-x="-8"
     inkscape:window-y="-8"
     inkscape:window-maximized="1"
     inkscape:current-layer="svg6" />
  <style
     type="text/css"
     id="style12">
	.st0{fill:#0081AC;}
</style>
  <symbol
     id="a"
     viewBox="-8.2 -8 16.4 16.1"
     transform="matrix(0.05967715,0,0,0.05967715,-8.9993142,-1.6709602)">
    <path
       d="M 8.2,-0.1 V 1.3 H -3.2 c 0.1,1.1 0.5,2 1.2,2.6 0.7,0.6 1.7,0.9 3,0.9 C 2,4.8 3.1,4.7 4.2,4.3 5.2,4 6.3,3.6 7.5,2.9 V 6.7 C 6.3,7.1 5.2,7.5 4,7.7 2.9,7.9 1.7,8 0.5,8 -2.3,8 -4.4,7.3 -6,5.9 -7.5,4.5 -8.2,2.6 -8.2,0 c 0,-2.5 0.8,-4.5 2.3,-5.9 1.5,-1.4 3.5,-2.1 6.2,-2.1 2.4,0 4.3,0.7 5.7,2.1 1.5,1.5 2.2,3.4 2.2,5.8 z m -5,-1.6 C 3.2,-2.6 2.9,-3.4 2.4,-3.9 1.8,-4.5 1.1,-4.8 0.3,-4.8 c -0.9,0 -1.7,0.3 -2.3,0.8 -0.6,0.5 -1,1.3 -1.1,2.3 z"
       id="path14" />
  </symbol>
  <symbol
     id="b"
     viewBox="-6.2 -9.8 12.4 19.7"
     transform="matrix(0.05967715,0,0,0.05967715,-8.9993142,-1.6709602)">
    <path
       d="m 1.1,-9.8 v 4.3 h 5 V -2 h -5 v 6.5 c 0,0.7 0.1,1.2 0.4,1.4 0.3,0.2 0.8,0.4 1.7,0.4 H 5.7 V 9.8 H 1.6 C -0.3,9.8 -1.7,9.4 -2.5,8.6 -3.3,7.8 -3.7,6.4 -3.7,4.5 V -2 h -2.4 v -3.5 h 2.4 v -4.3 z"
       id="path17" />
  </symbol>
  <symbol
     id="c"
     viewBox="-7.7 -8 15.5 16.1"
     transform="matrix(0.05967715,0,0,0.05967715,-8.9993142,-1.6709602)">
    <path
       d="m 0.3,0.8 c -1,0 -1.8,0.2 -2.3,0.5 -0.5,0.3 -0.8,0.9 -0.8,1.5 0,0.6 0.2,1.1 0.6,1.5 0.4,0.3 1,0.5 1.7,0.5 0.9,0 1.7,-0.3 2.3,-1 0.6,-0.7 1,-1.5 1,-2.5 V 0.8 Z M 7.7,-1.1 V 7.6 H 2.8 V 5.4 C 2.2,6.3 1.4,7 0.6,7.4 -0.2,7.8 -1.2,8 -2.4,8 -4,8 -5.3,7.6 -6.3,6.7 -7.3,5.8 -7.8,4.6 -7.8,3.1 -7.8,1.3 -7.2,0 -6,-0.8 c 1.2,-0.8 3.2,-1.3 5.8,-1.3 H 2.7 V -2.5 C 2.7,-3.3 2.4,-3.8 1.8,-4.2 1.3,-4.6 0.3,-4.8 -1,-4.8 c -1.1,0 -2,0.1 -2.9,0.3 -0.9,0.2 -1.7,0.5 -2.5,0.9 v -3.7 c 1,-0.3 2.1,-0.4 3.1,-0.6 1.1,-0.1 2.2,-0.1 3.2,-0.1 2.8,0 4.8,0.5 6,1.6 1.2,1.1 1.8,2.9 1.8,5.3 z"
       id="path20" />
  </symbol>
  <symbol
     id="d"
     viewBox="-5.7 -7.8 11.4 15.7"
     transform="matrix(0.05967715,0,0,0.05967715,-8.9993142,-1.6709602)">
    <path
       d="M 5.7,-3.3 C 5.2,-3.5 4.8,-3.6 4.4,-3.7 4,-3.8 3.6,-3.9 3.1,-3.9 c -1.3,0 -2.2,0.4 -2.9,1.2 -0.7,0.8 -1,2 -1,3.5 V 7.9 H -5.7 V -7.5 h 4.9 V -5 c 0.6,-1 1.3,-1.7 2.2,-2.2 0.8,-0.5 1.8,-0.7 2.9,-0.7 0.2,0 0.3,0 0.5,0 0.2,0 0.5,0 0.8,0.1 z"
       id="path23" />
  </symbol>
  <symbol
     id="e"
     viewBox="-8.4 -8 16.8 16.1"
     transform="matrix(0.05967715,0,0,0.05967715,-8.9993142,-1.6709602)">
    <path
       d="m 0,-4.5 c -1.1,0 -1.9,0.4 -2.5,1.2 -0.5,0.7 -0.8,1.8 -0.8,3.3 0,1.5 0.3,2.6 0.8,3.4 C -1.9,4.2 -1.1,4.5 0,4.5 1.1,4.5 1.9,4.1 2.4,3.3 3,2.6 3.3,1.5 3.3,0 3.3,-1.5 3,-2.6 2.5,-3.4 1.9,-4.1 1.1,-4.5 0,-4.5 Z M 0,-8 c 2.6,0 4.7,0.7 6.2,2.1 C 7.7,-4.5 8.4,-2.5 8.4,0 8.4,2.5 7.7,4.5 6.2,5.9 4.7,7.3 2.7,8 0,8 -2.6,8 -4.7,7.3 -6.2,5.9 -7.7,4.5 -8.4,2.5 -8.4,0 c 0,-2.5 0.7,-4.5 2.2,-5.9 C -4.7,-7.3 -2.6,-8 0,-8 Z"
       id="path26" />
  </symbol>
  <symbol
     id="f"
     viewBox="-7.7 -7.8 15.4 15.7"
     transform="matrix(0.05967715,0,0,0.05967715,-8.9993142,-1.6709602)">
    <path
       d="M 7.7,-1.5 V 7.8 H 2.8 V 0.7 C 2.8,-0.6 2.8,-1.5 2.7,-2 2.6,-2.5 2.5,-2.9 2.4,-3.1 2.2,-3.5 1.9,-3.7 1.6,-3.9 1.3,-4.1 0.9,-4.1 0.5,-4.1 c -1,0 -1.8,0.4 -2.4,1.2 -0.6,0.8 -0.9,1.9 -0.9,3.3 V 7.9 H -7.7 V -7.5 h 4.9 v 2.2 c 0.7,-0.9 1.5,-1.5 2.3,-2 0.8,-0.4 1.8,-0.6 2.8,-0.6 1.8,0 3.1,0.5 4,1.6 0.9,1.2 1.4,2.8 1.4,4.8 z"
       id="path29" />
  </symbol>
  <symbol
     id="g"
     viewBox="-7.7 -10.6 15.4 21.3"
     transform="matrix(0.05967715,0,0,0.05967715,-8.9993142,-1.6709602)">
    <path
       d="m 7.7,1.3 v 9.3 H 2.8 V 3.5 C 2.8,2.2 2.8,1.2 2.7,0.7 2.6,0.2 2.5,-0.1 2.4,-0.3 2.2,-0.7 1.9,-0.9 1.6,-1.1 1.3,-1.3 0.9,-1.3 0.5,-1.3 c -1,0 -1.8,0.4 -2.4,1.2 -0.6,0.8 -0.9,1.9 -0.9,3.3 v 7.5 h -4.9 v -21.3 h 4.9 v 8.2 c 0.7,-0.9 1.5,-1.5 2.3,-2 0.9,-0.4 1.8,-0.6 2.8,-0.6 1.8,0 3.1,0.5 4,1.6 0.9,1.1 1.4,2.6 1.4,4.7 z"
       id="path32" />
  </symbol>
  <symbol
     id="h"
     viewBox="-8.4 -10.2 16.8 20.4"
     transform="matrix(0.05967715,0,0,0.05967715,-8.9993142,-1.6709602)">
    <path
       d="m -8.4,-10.2 h 8.7 c 2.6,0 4.6,0.6 6,1.7 1.4,1.1 2.1,2.8 2.1,4.9 0,2.1 -0.7,3.8 -2.1,4.9 C 4.9,2.5 2.9,3 0.3,3 h -3.5 v 7.1 h -5.3 v -20.3 z m 5.3,3.8 v 5.7 h 2.9 c 1,0 1.8,-0.3 2.4,-0.8 C 2.7,-1.9 3,-2.6 3,-3.5 3,-4.4 2.7,-5.1 2.2,-5.6 1.6,-6.1 0.8,-6.4 -0.2,-6.4 Z"
       id="path35" />
  </symbol>
  <symbol
     id="i"
     viewBox="-8.2 -10.9 16.4 21.7"
     transform="matrix(0.05967715,0,0,0.05967715,-8.9993142,-1.6709602)">
    <path
       d="M 3.3,2.2 C 2.6,3.1 1.9,3.7 1.1,4.2 0.3,4.6 -0.7,4.8 -1.8,4.8 -3.7,4.8 -5.2,4.1 -6.4,2.6 -7.6,1.1 -8.2,-0.8 -8.2,-3 c 0,-2.3 0.6,-4.2 1.8,-5.6 1.2,-1.5 2.8,-2.2 4.6,-2.2 1.1,0 2,0.2 2.8,0.6 0.8,0.4 1.6,1.1 2.2,2 v -2.3 H 8.1 V 3.3 c 0,2.5 -0.8,4.3 -2.3,5.6 -1.6,1.3 -3.8,2 -6.8,2 -0.9,0 -1.9,-0.1 -2.8,-0.2 C -4.7,10.6 -5.6,10.3 -6.5,10 V 6.1 c 1,0.5 1.9,0.9 2.7,1.1 0.8,0.3 1.6,0.4 2.4,0.4 1.6,0 2.8,-0.4 3.5,-1 C 2.9,5.9 3.2,4.8 3.2,3.3 Z M 0.1,-7.3 c -1,0 -1.8,0.4 -2.4,1.1 -0.6,0.7 -0.8,1.8 -0.8,3.2 0,1.4 0.3,2.5 0.8,3.2 0.5,0.7 1.3,1 2.4,1 1,0 1.8,-0.4 2.4,-1.1 C 3,-0.6 3.3,-1.7 3.3,-3 3.3,-4.4 3,-5.4 2.5,-6.2 1.9,-6.9 1.1,-7.3 0.1,-7.3 Z"
       id="path38" />
  </symbol>
  <symbol
     id="j"
     viewBox="-8.7 -10.7 17.4 21.4"
     transform="matrix(0.05967715,0,0,0.05967715,-8.9993142,-1.6709602)">
    <path
       d="m -8.7,-10.7 h 4.9 L 0.3,-0.3 3.8,-10.7 H 8.7 L 2.3,6.1 C 1.6,7.8 0.9,9 0,9.6 c -0.9,0.7 -2,1 -3.4,1 H -6.2 V 7.5 h 1.5 c 0.8,0 1.4,-0.1 1.8,-0.4 0.4,-0.3 0.7,-0.8 0.9,-1.5 l 0.1,-0.4 z"
       id="path41" />
  </symbol>
  <symbol
     id="k"
     viewBox="-8.2 -10.8 16.4 21.7"
     transform="matrix(0.05967715,0,0,0.05967715,-8.9993142,-1.6709602)">
    <path
       d="M -0.1,7.3 C 1,7.3 1.8,6.9 2.3,6.2 2.9,5.4 3.1,4.3 3.1,2.9 3.1,1.4 2.8,0.3 2.3,-0.4 1.8,-1.3 1,-1.7 -0.1,-1.7 c -1.1,0 -1.9,0.4 -2.4,1.2 -0.5,0.7 -0.8,1.9 -0.8,3.3 0,1.4 0.3,2.6 0.8,3.3 0.6,0.8 1.4,1.2 2.4,1.2 z m -3.2,-9.9 c 0.7,-0.9 1.4,-1.5 2.2,-2 0.8,-0.4 1.8,-0.6 2.8,-0.6 1.9,0 3.4,0.8 4.7,2.2 1.2,1.5 1.8,3.4 1.8,5.8 0,2.4 -0.6,4.3 -1.8,5.8 -1.2,1.5 -2.8,2.3 -4.7,2.3 -1.1,0 -2,-0.2 -2.8,-0.6 -0.8,-0.4 -1.6,-1.1 -2.2,-2 v 2.2 h -4.9 v -21.3 h 4.9 z"
       id="path44" />
  </symbol>
  <symbol
     id="l"
     viewBox="-8.2 -10.8 16.4 21.7"
     transform="matrix(0.05967715,0,0,0.05967715,-8.9993142,-1.6709602)">
    <path
       d="m 3.3,-2.6 v -8.2 H 8.2 V 10.5 H 3.3 V 8.2 C 2.6,9.1 1.9,9.8 1.1,10.2 0.3,10.6 -0.7,10.8 -1.7,10.8 -3.6,10.8 -5.1,10 -6.3,8.5 -7.5,7 -8.1,5.1 -8.1,2.7 c 0,-2.4 0.6,-4.3 1.8,-5.8 1.2,-1.5 2.8,-2.3 4.6,-2.3 1.1,0 2,0.2 2.8,0.6 0.8,0.6 1.5,1.3 2.2,2.2 z M 0.1,7.3 C 1.1,7.3 1.9,6.9 2.5,6.2 3,5.4 3.3,4.3 3.3,2.8 3.3,1.3 3,0.2 2.5,-0.5 1.9,-1.3 1.1,-1.7 0.1,-1.7 c -1,0 -1.8,0.4 -2.4,1.2 -0.6,0.8 -0.8,1.9 -0.8,3.3 0,1.5 0.3,2.6 0.8,3.3 0.5,0.8 1.3,1.2 2.4,1.2 z"
       id="path47" />
  </symbol>
  <symbol
     id="m"
     viewBox="-6.8 -8 13.5 16.1"
     transform="matrix(0.05967715,0,0,0.05967715,-8.9993142,-1.6709602)">
    <path
       d="m 6.8,-7.2 v 4 C 6.1,-3.7 5.5,-4 4.8,-4.2 4.1,-4.4 3.4,-4.5 2.7,-4.5 c -1.4,0 -2.4,0.4 -3.2,1.2 -0.8,0.8 -1.2,1.9 -1.2,3.3 0,1.4 0.4,2.5 1.1,3.3 C 0.2,4.1 1.2,4.5 2.6,4.5 3.4,4.5 4.1,4.4 4.8,4.2 5.5,4 6.1,3.6 6.7,3.2 v 4 C 6,7.5 5.2,7.7 4.4,7.8 3.6,8 2.9,8 2.1,8 -0.7,8 -2.8,7.3 -4.4,5.9 -6,4.5 -6.8,2.5 -6.8,0 c 0,-2.5 0.8,-4.5 2.3,-5.9 1.6,-1.4 3.8,-2.1 6.6,-2.1 0.8,0 1.5,0 2.3,0.2 0.8,0.1 1.6,0.3 2.4,0.6 z"
       id="path50" />
  </symbol>
  <symbol
     id="n"
     viewBox="-4.1 -13.7 8.2 27.3"
     transform="matrix(0.05967715,0,0,0.05967715,-8.9993142,-1.6709602)">
    <path
       d="m -0.8,-7.7 h 4.9 v 15 c 0,2.1 -0.5,3.6 -1.5,4.7 -1,1.1 -2.4,1.6 -4.3,1.6 h -2.4 v -3.2 h 0.9 c 0.9,0 1.6,-0.2 1.9,-0.6 0.3,-0.4 0.5,-1.2 0.5,-2.5 z m 0,-6 h 4.9 v 4 h -4.9 z"
       id="path53" />
  </symbol>
  <symbol
     id="o"
     viewBox="-7.7 -7.9 15.4 15.7"
     transform="matrix(0.05967715,0,0,0.05967715,-8.9993142,-1.6709602)">
    <path
       d="m -7.7,1.5 v -9.3 h 4.9 v 1.5 c 0,0.8 0,1.9 0,3.1 0,1.3 0,2.1 0,2.5 0,1.2 0,2.1 0.1,2.7 0.1,0.5 0.2,0.9 0.3,1.2 0.2,0.3 0.5,0.6 0.8,0.8 0.3,0.2 0.7,0.3 1.1,0.3 1,0 1.8,-0.4 2.4,-1.2 C 2.5,2.3 2.8,1.2 2.8,-0.2 V -7.8 H 7.7 V 7.5 H 2.8 V 5.2 C 2.1,6.1 1.3,6.8 0.5,7.2 -0.3,7.6 -1.2,7.8 -2.2,7.8 -4,7.8 -5.3,7.3 -6.2,6.2 -7.2,5.1 -7.7,3.6 -7.7,1.5 Z"
       id="path56" />
  </symbol>
  <symbol
     id="p"
     viewBox="-9.1 -10.2 18.3 20.4"
     transform="matrix(0.05967715,0,0,0.05967715,-8.9993142,-1.6709602)">
    <path
       d="m -9.1,-10.2 h 5.9 l 7.4,14 v -14 h 5 V 10.2 H 3.3 l -7.4,-14 v 14 h -5 z"
       id="path59" />
  </symbol>
  <symbol
     id="q"
     viewBox="-12.3 -7.8 24.6 15.7"
     transform="matrix(0.05967715,0,0,0.05967715,-8.9993142,-1.6709602)">
    <path
       d="m 1.9,-4.9 c 0.6,-0.9 1.3,-1.7 2.2,-2.2 0.9,-0.5 1.8,-0.7 2.8,-0.7 1.8,0 3.1,0.5 4,1.6 0.9,1.1 1.4,2.7 1.4,4.7 V 7.8 H 7.4 v -8 -0.4 c 0,-0.1 0,-0.3 0,-0.6 C 7.4,-2.3 7.2,-3.1 6.9,-3.5 6.6,-3.9 6.1,-4.1 5.4,-4.1 4.5,-4.1 3.8,-3.8 3.2,-3 2.7,-2.2 2.5,-1.1 2.5,0.3 v 7.5 h -4.9 v -8 c 0,-1.7 -0.1,-2.8 -0.4,-3.3 -0.3,-0.5 -0.8,-0.7 -1.6,-0.7 -0.9,0 -1.7,0.4 -2.2,1.2 -0.5,0.8 -0.8,1.9 -0.8,3.3 v 7.5 h -4.9 V -7.5 h 4.9 v 2.2 c 0.6,-0.9 1.3,-1.5 2.1,-2 0.8,-0.4 1.6,-0.7 2.6,-0.7 1.1,0 2,0.3 2.8,0.8 0.8,0.6 1.4,1.4 1.8,2.3 z"
       id="path62" />
  </symbol>
  <symbol
     id="r"
     viewBox="-5.9 -10.6 11.9 21.3"
     transform="matrix(0.05967715,0,0,0.05967715,-8.9993142,-1.6709602)">
    <path
       d="m 5.9,-10.6 v 3.2 H 3.2 c -0.6,0 -1.1,0.1 -1.4,0.4 -0.3,0.2 -0.4,0.6 -0.4,1.3 v 1.1 h 4.2 v 3.5 H 1.4 V 10.7 H -3.5 V -1.2 h -2.4 v -3.5 h 2.4 v -1.1 c 0,-1.7 0.5,-2.9 1.4,-3.7 0.9,-0.8 2.4,-1.2 4.3,-1.2 z"
       id="path65" />
  </symbol>
  <symbol
     id="s"
     viewBox="-6.9 -8 13.9 16.1"
     transform="matrix(0.05967715,0,0,0.05967715,-8.9993142,-1.6709602)">
    <path
       d="m 5.9,-7.2 v 3.7 c -1,-0.4 -2.1,-0.8 -3,-1 -1,-0.2 -1.9,-0.3 -2.8,-0.3 -0.9,0 -1.6,0.1 -2.1,0.3 -0.4,0.2 -0.7,0.6 -0.7,1.1 0,0.4 0.2,0.7 0.5,0.9 0.3,0.2 1,0.4 1.8,0.5 l 0.9,0.1 C 3.1,-1.5 4.8,-1 5.6,-0.3 6.5,0.4 6.9,1.6 6.9,3.1 6.9,4.7 6.3,6 5.1,6.8 3.9,7.6 2.1,8 -0.2,8 -1.2,8 -2.3,7.9 -3.4,7.8 -4.5,7.6 -5.6,7.4 -6.7,7.1 V 3.4 c 1,0.5 2,0.8 3,1.1 1,0.2 2.1,0.3 3.1,0.3 1,0 1.7,-0.1 2.2,-0.4 C 2,4.1 2.3,3.7 2.3,3.2 2.3,2.8 2.1,2.4 1.8,2.2 1.5,2 0.8,1.8 -0.2,1.7 L -1.1,1.6 C -3.3,1.3 -4.8,0.8 -5.7,0.1 -6.6,-0.6 -7,-1.8 -7,-3.3 c 0,-1.6 0.6,-2.8 1.7,-3.6 1.1,-0.7 2.8,-1.1 5.1,-1.1 0.9,0 1.9,0 2.9,0.2 1,0.1 2,0.3 3.2,0.6 z"
       id="path68" />
  </symbol>
  <symbol
     id="t"
     viewBox="-2.4 -10.6 4.9 21.3"
     transform="matrix(0.05967715,0,0,0.05967715,-8.9993142,-1.6709602)">
    <path
       d="m -2.4,-4.7 h 4.9 v 15.3 h -4.9 z m 0,-5.9 h 4.9 v 4 h -4.9 z"
       id="path71" />
  </symbol>
  <symbol
     id="u"
     viewBox="-10.7 -10.2 21.4 20.4"
     transform="matrix(0.05967715,0,0,0.05967715,-8.9993142,-1.6709602)">
    <path
       d="m -10.7,-10.2 h 5.3 L 0,4.9 5.4,-10.2 h 5.3 L 3.1,10.2 h -6.3 z"
       id="path74" />
  </symbol>
  <symbol
     id="v"
     viewBox="-9.4 -10.2 18.8 20.4"
     transform="matrix(0.05967715,0,0,0.05967715,-8.9993142,-1.6709602)">
    <path
       d="M -9.4,-10.2 H 9.4 v 4 H 2.6 V 10.2 H -2.7 V -6.2 h -6.8 z"
       id="path77" />
  </symbol>
  <symbol
     id="w"
     viewBox="-8.7 -10.6 17.4 21.2"
     transform="matrix(0.05967715,0,0,0.05967715,-8.9993142,-1.6709602)">
    <path
       d="m 8.7,9.1 c -1,0.5 -2,0.9 -3,1.1 -1,0.3 -2.1,0.4 -3.3,0.4 -3.4,0 -6.1,-0.9 -8.1,-2.8 -2,-1.9 -3,-4.5 -3,-7.7 0,-3.3 1,-5.8 3,-7.7 2,-1.9 4.7,-2.9 8.1,-2.9 1.1,0 2.2,0.1 3.3,0.4 1.1,0.3 2.1,0.6 3,1.1 v 4.2 c -1,-0.7 -2,-1.2 -2.9,-1.5 -0.9,-0.3 -1.9,-0.5 -3,-0.5 -1.9,0 -3.4,0.6 -4.4,1.8 -1.1,1.2 -1.6,2.9 -1.6,5 0,2.1 0.5,3.8 1.6,5 1.1,1.2 2.5,1.8 4.4,1.8 1.1,0 2.1,-0.1 3,-0.5 C 6.7,6 7.7,5.5 8.7,4.9 Z"
       id="path80" />
  </symbol>
  <g
     id="g731"
     transform="matrix(1.2137351,0,0,1.2137351,-3.8396988,-0.03219639)">
    <ellipse
       style="fill:#ffffff;fill-rule:evenodd"
       id="path303"
       cx="11.625"
       cy="-15.214286"
       rx="10.821428"
       ry="11.303572"
       transform="rotate(90)" />
    <path
       class="st0"
       d="m 15.051228,0.0265267 c -2.088701,0 -4.135627,0.54902978 -5.9438444,1.5933799 C 7.2991659,2.6642567 5.8012694,4.1621532 4.7569193,5.9703708 3.7125692,7.7785885 3.1635394,9.8314824 3.1635394,11.914215 c 0,2.440795 0.7578998,4.821914 2.1603128,6.821098 1.4024131,1.999185 3.3896622,3.514984 5.6812648,4.350464 l 4.046111,7.018033 4.052078,-7.018033 v 0 c 2.291603,-0.829512 4.278852,-2.351279 5.681265,-4.344496 1.402413,-1.999185 2.154345,-4.380303 2.160313,-6.821098 0,-2.0887006 -0.54903,-4.1356268 -1.59338,-5.9438444 C 24.307154,4.1681209 22.809257,2.6642567 21.00104,1.6258743 19.186854,0.57555648 17.139928,0.0265267 15.051228,0.0265267 Z m 0,3.0733732 v 0 c 2.339344,0 4.583205,0.9309636 6.236262,2.5840206 1.653057,1.6530571 2.58402,3.8969179 2.58402,6.2362625 0,2.339344 -0.930963,4.583205 -2.58402,6.236262 -1.653057,1.653057 -3.896918,2.58402 -6.236262,2.58402 -2.339345,0 -4.583205,-0.930963 -6.2362625,-2.58402 -1.653057,-1.653057 -2.5840206,-3.896918 -2.5840206,-6.236262 0,-2.3393446 0.9309636,-4.5832054 2.5840206,-6.2362625 C 10.468023,4.0248957 12.711883,3.0998999 15.051228,3.0998999 Z"
       id="path83"
       style="stroke-width:0.0596772" />
    <path
       class="st0"
       d="m 14.711068,6.6745612 c 0.143225,0 0.256612,0.1133866 0.256612,0.2566118 0,0.1432251 -0.113387,0.2566117 -0.256612,0.2566117 -0.143225,0 -0.256612,-0.1133866 -0.256612,-0.2566117 0.006,-0.1432252 0.119355,-0.2566118 0.256612,-0.2566118 z"
       id="path85"
       style="stroke-width:0.0596772" />
    <path
       class="st0"
       d="m 15.463,6.6745612 c 0.143225,0 0.256612,0.1133866 0.256612,0.2566118 0,0.1432251 -0.113387,0.2566117 -0.256612,0.2566117 -0.143225,0 -0.256612,-0.1133866 -0.256612,-0.2566117 0,-0.1432252 0.113387,-0.2566118 0.256612,-0.2566118 z"
       id="path87"
       style="stroke-width:0.0596772" />
    <path
       class="st0"
       d="m 14.084458,7.2414941 c -0.692255,0 -1.247253,0.5012881 -1.247253,1.1278982 v 3.9685307 c 0,0.578868 0.483385,1.056285 1.104028,1.12193 l 2.237893,0.006 c 0.650481,-0.04177 1.163704,-0.525159 1.163704,-1.121931 V 8.37536 c 0,-0.6266101 -0.554997,-1.1278981 -1.247252,-1.1278981 z m 0.560965,0.2387086 h 0.883222 c 0.184999,0 0.334192,0.1253221 0.334192,0.2864504 0,0.1611283 -0.149193,0.2864503 -0.334192,0.2864503 h -0.883222 c -0.184999,0 -0.334192,-0.125322 -0.334192,-0.2864503 0,-0.1611283 0.149193,-0.2864504 0.334192,-0.2864504 z m -0.578868,0.7817707 h 2.040958 c 0.453547,0 0.817577,0.3282243 0.817577,0.7399967 v 0.7996738 c 0,0.4058041 -0.36403,0.7340291 -0.817577,0.7340291 h -2.040958 c -0.453547,0 -0.817577,-0.328225 -0.817577,-0.7340291 V 9.0019701 c 0,-0.4117724 0.36403,-0.7399967 0.817577,-0.7399967 z M 13.768169,12.05744 c 0.250644,0 0.447579,0.184999 0.447579,0.41774 0,0.232741 -0.202903,0.41774 -0.447579,0.41774 -0.244676,0 -0.447579,-0.190967 -0.447579,-0.41774 0,-0.226773 0.202903,-0.41774 0.447579,-0.41774 z m 2.63773,0 c 0.250644,0 0.447579,0.184999 0.447579,0.41774 0,0.232741 -0.202903,0.41774 -0.447579,0.41774 -0.244676,0 -0.447579,-0.190967 -0.447579,-0.41774 0,-0.226773 0.196935,-0.41774 0.447579,-0.41774 z"
       id="path89"
       style="stroke-width:0.0596772" />
    <path
       class="st0"
       d="m 13.487686,13.173403 -2.309505,3.992401 h 0.656448 l 2.070797,-3.992401 z"
       id="path91"
       style="stroke-width:0.0596772" />
    <path
       class="st0"
       d="m 16.250738,13.173403 2.106604,3.992401 h 0.632578 l -2.237894,-3.992401 z"
       id="path93"
       style="stroke-width:0.0596772" />
  </g>
</svg>
