<?xml version="1.0" encoding="utf-8"?>
<!-- Generator: Adobe Illustrator 21.0.0, SVG Export Plug-In . SVG Version: 6.00 Build 0)  -->
<svg version="1.1" id="Layer_1" xmlns="http://www.w3.org/2000/svg" xmlns:xlink="http://www.w3.org/1999/xlink" x="0px" y="0px"
	 viewBox="0 0 37 36" style="enable-background:new 0 0 37 36;" xml:space="preserve">
<style type="text/css">
	.st0{fill:#FFFFFF;}
</style>
<g>
	<path class="st0" d="M26.2,29.4l-7.1-3.9c2.6-2.1,3.3-6.1,3.3-8.4v-4.7c0-3.1-4.2-6.6-8.4-6.6c-4.2,0-8.5,3.5-8.5,6.6V17
		c0,2.1,0.9,6.3,3.5,8.4l-7.3,3.9c0,0-1.9,0.8-1.9,1.9v2.8c0,1,0.9,1.9,1.9,1.9h24.3c1,0,1.9-0.9,1.9-1.9v-2.8
		C28.1,30.1,26.2,29.4,26.2,29.4z"/>
	<path class="st0" d="M34.1,23.8l-7.2-3.9c2.6-2.1,3.5-6.1,3.5-8.4V6.7c0-3.1-4.3-6.7-8.5-6.7c-2.7,0-5.5,1.5-7.1,3.4
		c0.9,0.1,1.9,0.1,2.8,0.3c1.2-0.9,2.7-1.5,4.3-1.5c3.3,0,6.2,2.8,6.2,4.4v4.7c0,1.8-0.7,5.1-2.6,6.6c-0.6,0.5-0.9,1.2-0.9,2
		c0.1,0.8,0.5,1.4,1.2,1.8l7.2,3.9c0.1,0,0.1,0.1,0.2,0.1c0.2,0.1,0.4,0.2,0.5,0.3v2h-4.5c0.7,0.5,0.9,1.3,1.2,2.2h3.7
		c1,0,1.9-0.9,1.9-1.9v-2.8C36,24.5,34.1,23.8,34.1,23.8z"/>
</g>
</svg>
