<svg xmlns="http://www.w3.org/2000/svg" width="36" height="36" viewBox="0 0 36 36">
  <metadata><?xpacket begin="﻿" id="W5M0MpCehiHzreSzNTczkc9d"?>
<x:xmpmeta xmlns:x="adobe:ns:meta/" x:xmptk="Adobe XMP Core 5.6-c142 79.160924, 2017/07/13-01:06:39        ">
   <rdf:RDF xmlns:rdf="http://www.w3.org/1999/02/22-rdf-syntax-ns#">
      <rdf:Description rdf:about=""/>
   </rdf:RDF>
</x:xmpmeta>
                                                                                                    
                                                                                                    
                                                                                                    
                                                                                                    
                                                                                                    
                                                                                                    
                                                                                                    
                                                                                                    
                                                                                                    
                                                                                                    
                                                                                                    
                                                                                                    
                                                                                                    
                                                                                                    
                                                                                                    
                                                                                                    
                                                                                                    
                                                                                                    
                                                                                                    
                                                                                                    
                           
<?xpacket end="w"?></metadata>
<defs>
    <style>
      .cls-1 {
        fill: #fff;
        fill-rule: evenodd;
      }
    </style>
  </defs>
  <path id="COG" class="cls-1" d="M31.222,21.615a13.571,13.571,0,0,1-1.3,3.108c0.082,0.1,3,3.765,1.205,5.556l-0.893.893c-1.341,1.341-4.7-.761-5.5-1.3a13.61,13.61,0,0,1-3.291,1.319L21.671,31.2s-0.637,4.792-3.205,4.792H17.585c-1.958,0-3.049-4.105-3.237-4.88A13.605,13.605,0,0,1,11.1,29.725l0.176,0.188S7.483,32.9,5.666,31.079l-0.8-.668c-1.38-1.38.844-5.037,1.289-5.734a13.592,13.592,0,0,1-1.268-3.033C4.13,21.461,0,20.37,0,18.4V17.524c0-2.268,3.942-3.029,4.865-3.176a13.581,13.581,0,0,1,1.26-3.057C5.7,10.647,3.385,6.975,4.777,5.582l0.848-.713c1.6-1.6,4.872.666,5.636,1.233A13.6,13.6,0,0,1,14.367,4.8C14.609,3.835,15.695,0,17.585,0h0.881c2.2,0,2.982,3.712,3.161,4.774a13.594,13.594,0,0,1,3.15,1.3c0.83-.541,4.248-2.63,5.586-1.293l0.8,0.848c1.565,1.566-.606,4.736-1.237,5.583a13.584,13.584,0,0,1,1.3,3.114c0.28,0.04,4.766.713,4.766,3.2V18.4C35.994,20.28,32.224,21.361,31.222,21.615ZM18,7.875A10.125,10.125,0,1,0,28.125,18,10.125,10.125,0,0,0,18,7.875ZM18,24.75A6.75,6.75,0,1,1,24.75,18,6.75,6.75,0,0,1,18,24.75Zm0-10.125A3.375,3.375,0,1,0,21.375,18,3.375,3.375,0,0,0,18,14.625Z"/>
</svg>
