<?xml version="1.0" encoding="utf-8"?>
<!-- Generator: Adobe Illustrator 21.0.0, SVG Export Plug-In . SVG Version: 6.00 Build 0)  -->
<svg version="1.1" id="Layer_1" xmlns="http://www.w3.org/2000/svg" xmlns:xlink="http://www.w3.org/1999/xlink" x="0px" y="0px"
	 viewBox="0 0 33 36" enable-background="new 0 0 33 36" xml:space="preserve">
<g>
	<path fill-rule="evenodd" clip-rule="evenodd" fill="#FFFFFF" d="M3.6,16.8H16c0.6,0,1-0.4,1-1c0-0.5-0.4-1-1-1H3.7l3.6-3.6
		c0.4-0.4,0.4-1,0-1.4c-0.4-0.4-1-0.4-1.4,0l-5.9,6l5.9,6c0.2,0.2,0.5,0.3,0.7,0.3c0.3,0,0.5-0.1,0.7-0.3c0.4-0.4,0.4-1,0-1.4
		L3.6,16.8z"/>
	<path fill-rule="evenodd" clip-rule="evenodd" fill="#FFFFFF" d="M30,0H13c-1.1,0-2,0.9-2,2v8.9h2V3.2C13,2.5,13.5,2,14.2,2h14.5
		c0.1,0,0.3,0,0.4,0.1l-8.6,4.2v23.4h-6.3c-0.7,0-1.2-0.5-1.2-1.2v-7.7l-2,0v8.9c0,1.1,0.9,2,2,2h7.6V36l8.8-4.3H30c1.1,0,2-0.9,2-2
		V2C32,0.9,31.1,0,30,0z"/>
</g>
</svg>
