<?xml version="1.0" encoding="utf-8"?>
<!-- Generator: Adobe Illustrator 21.0.0, SVG Export Plug-In . SVG Version: 6.00 Build 0)  -->
<svg version="1.1" id="Layer_1" xmlns="http://www.w3.org/2000/svg" xmlns:xlink="http://www.w3.org/1999/xlink" x="0px" y="0px"
	 viewBox="0 0 33 37" style="enable-background:new 0 0 33 37;" xml:space="preserve">
<style type="text/css">
	.st0{fill-rule:evenodd;clip-rule:evenodd;fill:#FFFFFF;}
</style>
<path class="st0" d="M30.3,25c-1.3-1.6-3.1-3.9-3.1-6.2v-7.4C27.2,5.1,22.5,0,16.4,0c-6,0-10.7,5.2-10.7,11.5v7.4
	c0,2.3-1.9,4.4-3.2,6.1c-1.1,1.5-2,2.7-1.4,3.9C1.7,29.9,3,30,4.1,30h6.4c0,3.3,2.7,6,6,6c3.3,0,6-2.7,6-6H29c0.7,0,2.3,0,2.8-1.2
	C32.4,27.6,31.5,26.6,30.3,25z M16.5,33.7c-2,0-3.6-1.6-3.6-3.7h7.3C20.1,32,18.5,33.7,16.5,33.7z"/>
</svg>
